<?xml version="1.0" encoding="UTF-8" standalone="no"?>
<!-- Created with Inkscape (http://www.inkscape.org/) -->

<svg
   xmlns:dc="http://purl.org/dc/elements/1.1/"
   xmlns:cc="http://creativecommons.org/ns#"
   xmlns:rdf="http://www.w3.org/1999/02/22-rdf-syntax-ns#"
   xmlns:svg="http://www.w3.org/2000/svg"
   xmlns="http://www.w3.org/2000/svg"
   xmlns:sodipodi="http://sodipodi.sourceforge.net/DTD/sodipodi-0.dtd"
   xmlns:inkscape="http://www.inkscape.org/namespaces/inkscape"
   width="27.993874mm"
   height="10.147883mm"
   viewBox="0 0 99.190891 35.957067"
   id="svg2"
   version="1.1"
   inkscape:version="0.91 r13725"
   sodipodi:docname="ejercicios.svg"
   inkscape:export-filename="/home/fark/workspace/cursoC/material/slides/src/ejercicios.png"
   inkscape:export-xdpi="928.60736"
   inkscape:export-ydpi="928.60736">
  <defs
     id="defs4" />
  <sodipodi:namedview
     id="base"
     pagecolor="#ffffff"
     bordercolor="#666666"
     borderopacity="1.0"
     inkscape:pageopacity="1"
     inkscape:pageshadow="2"
     inkscape:zoom="5.6568542"
     inkscape:cx="-1.8507963"
     inkscape:cy="-8.2442666"
     inkscape:document-units="px"
     inkscape:current-layer="layer1"
     showgrid="false"
     inkscape:window-width="1918"
     inkscape:window-height="1056"
     inkscape:window-x="0"
     inkscape:window-y="22"
     inkscape:window-maximized="1"
     fit-margin-top="0"
     fit-margin-left="0"
     fit-margin-right="0"
     fit-margin-bottom="0" />
  <metadata
     id="metadata7">
    <rdf:RDF>
      <cc:Work
         rdf:about="">
        <dc:format>image/svg+xml</dc:format>
        <dc:type
           rdf:resource="http://purl.org/dc/dcmitype/StillImage" />
        <dc:title />
      </cc:Work>
    </rdf:RDF>
  </metadata>
  <g
     inkscape:label="Capa 1"
     inkscape:groupmode="layer"
     id="layer1"
     transform="translate(-175.30672,-465.27428)">
    <flowRoot
       xml:space="preserve"
       id="flowRoot4140"
       style="font-style:normal;font-weight:normal;font-size:15px;line-height:125%;font-family:sans-serif;letter-spacing:0px;word-spacing:0px;fill:#000000;fill-opacity:1;stroke:none;stroke-width:1px;stroke-linecap:butt;stroke-linejoin:miter;stroke-opacity:1"><flowRegion
         id="flowRegion4142"><rect
           id="rect4144"
           width="151.52289"
           height="27.779196"
           x="55.053314"
           y="474.55496" /></flowRegion><flowPara
         id="flowPara4146" /></flowRoot>    <g
       id="g4594">
      <g
         transform="matrix(0.51331256,0,0,0.51331256,131.95212,220.79671)"
         id="g4536">
        <g
           id="g4265">
          <path
             sodipodi:nodetypes="ccccc"
             inkscape:connector-curvature="0"
             id="rect4148-9-5-1-9"
             d="m 142.94298,484.6486 c -10.47236,1.00895 -20.43136,3.54367 -29.36005,9.14055 l 13.71102,38.99913 c 8.64946,-4.69892 16.70008,-7.64531 27.98506,-8.51554 z"
             style="opacity:1;fill:#ffffff;fill-opacity:1;stroke:#000000;stroke-width:0.2;stroke-linecap:butt;stroke-miterlimit:4;stroke-dasharray:none;stroke-dashoffset:0;stroke-opacity:1" />
          <path
             sodipodi:nodetypes="ccccc"
             inkscape:connector-curvature="0"
             id="rect4148-9-5-1"
             d="m 143.16779,484.15149 c -10.47236,1.00895 -20.43136,3.54367 -29.36005,9.14055 l 13.08602,39.31163 c 8.64946,-4.69892 17.32508,-7.95781 28.61006,-8.82804 z"
             style="opacity:1;fill:#ffffff;fill-opacity:1;stroke:#000000;stroke-width:0.2;stroke-linecap:butt;stroke-miterlimit:4;stroke-dasharray:none;stroke-dashoffset:0;stroke-opacity:1" />
          <path
             sodipodi:nodetypes="ccccc"
             inkscape:connector-curvature="0"
             id="rect4148-2-1-6"
             d="m 143.3749,483.56925 c -10.47238,1.00895 -20.43138,3.54368 -29.36006,9.14055 l 12.33603,39.62414 c 8.64946,-4.69894 18.07506,-8.27032 29.36004,-9.14055 z"
             style="opacity:1;fill:#ffffff;fill-opacity:1;stroke:#000000;stroke-width:0.2;stroke-linecap:butt;stroke-miterlimit:4;stroke-dasharray:none;stroke-dashoffset:0;stroke-opacity:1" />
          <path
             sodipodi:nodetypes="ccccc"
             inkscape:connector-curvature="0"
             id="rect4148-9-1"
             d="m 143.63717,483.04094 c -10.47237,1.00895 -20.43137,3.54367 -29.36005,9.14055 l 12.33602,39.62413 c 8.64946,-4.69892 18.07507,-8.27032 29.36005,-9.14054 z"
             style="opacity:1;fill:#ffffff;fill-opacity:1;stroke:#000000;stroke-width:0.2;stroke-linecap:butt;stroke-miterlimit:4;stroke-dasharray:none;stroke-dashoffset:0;stroke-opacity:1" />
          <path
             sodipodi:nodetypes="ccccc"
             inkscape:connector-curvature="0"
             id="rect4148-2-8"
             d="m 143.88088,482.4587 c -10.47238,1.00895 -20.43138,3.54368 -29.36006,9.14054 l 12.33603,39.62415 c 8.64946,-4.69894 18.07506,-8.27032 29.36004,-9.14055 z"
             style="opacity:1;fill:#ffffff;fill-opacity:1;stroke:#000000;stroke-width:0.2;stroke-linecap:butt;stroke-miterlimit:4;stroke-dasharray:none;stroke-dashoffset:0;stroke-opacity:1" />
          <path
             sodipodi:nodetypes="ccccc"
             inkscape:connector-curvature="0"
             id="rect4148-2-8-7"
             d="m 144.16108,481.83552 c -10.47238,1.00895 -20.43138,3.54368 -29.36006,9.14054 l 12.33603,39.62415 c 8.64946,-4.69894 18.07506,-8.27032 29.36004,-9.14055 z"
             style="opacity:1;fill:#ffffff;fill-opacity:1;stroke:#000000;stroke-width:0.2;stroke-linecap:butt;stroke-miterlimit:4;stroke-dasharray:none;stroke-dashoffset:0;stroke-opacity:1" />
          <path
             sodipodi:nodetypes="ccccc"
             inkscape:connector-curvature="0"
             id="rect4148-4"
             d="m 144.30208,481.12613 c -10.47238,1.00894 -20.43138,3.54367 -29.36006,9.14055 l 12.33602,39.62414 c 8.64946,-4.69893 18.07508,-8.27032 29.36006,-9.14056 z"
             style="opacity:1;fill:#ffffff;fill-opacity:1;stroke:#000000;stroke-width:0.2;stroke-linecap:butt;stroke-miterlimit:4;stroke-dasharray:none;stroke-dashoffset:0;stroke-opacity:1" />
          <path
             sodipodi:nodetypes="ccccc"
             inkscape:connector-curvature="0"
             id="rect4148-9-5"
             d="m 84.580045,502.24193 c 9.198304,-5.10684 18.838865,-8.66579 29.367005,-9.11821 l 12.30588,39.63351 c -9.789,1.03375 -19.578,3.43635 -29.366998,9.11821 z"
             style="opacity:1;fill:#ffffff;fill-opacity:1;stroke:#000000;stroke-width:0.2;stroke-linecap:butt;stroke-miterlimit:4;stroke-dasharray:none;stroke-dashoffset:0;stroke-opacity:1" />
          <path
             sodipodi:nodetypes="ccccc"
             inkscape:connector-curvature="0"
             id="rect4148-2-1"
             d="m 84.793433,501.64726 c 9.198304,-5.10684 18.838867,-8.66579 29.366997,-9.11821 l 12.30588,39.63351 c -9.789,1.03375 -19.57799,3.43635 -29.366991,9.11821 z"
             style="opacity:1;fill:#ffffff;fill-opacity:1;stroke:#000000;stroke-width:0.2;stroke-linecap:butt;stroke-miterlimit:4;stroke-dasharray:none;stroke-dashoffset:0;stroke-opacity:1" />
          <path
             sodipodi:nodetypes="ccccc"
             inkscape:connector-curvature="0"
             id="rect4148-9"
             d="m 84.982644,501.02738 c 9.198305,-5.10684 18.838866,-8.66579 29.367006,-9.11821 l 12.30588,39.63351 c -9.789,1.03375 -19.578,3.43635 -29.366998,9.11821 z"
             style="opacity:1;fill:#ffffff;fill-opacity:1;stroke:#000000;stroke-width:0.2;stroke-linecap:butt;stroke-miterlimit:4;stroke-dasharray:none;stroke-dashoffset:0;stroke-opacity:1" />
          <path
             sodipodi:nodetypes="ccccc"
             inkscape:connector-curvature="0"
             id="rect4148-2"
             d="m 85.196032,500.43271 c 9.198305,-5.10684 18.838868,-8.66579 29.366998,-9.11821 l 12.30588,39.63351 c -9.789,1.03375 -19.57799,3.43635 -29.366991,9.11821 z"
             style="opacity:1;fill:#ffffff;fill-opacity:1;stroke:#000000;stroke-width:0.2;stroke-linecap:butt;stroke-miterlimit:4;stroke-dasharray:none;stroke-dashoffset:0;stroke-opacity:1" />
          <path
             sodipodi:nodetypes="ccccc"
             inkscape:connector-curvature="0"
             id="rect4148"
             d="m 85.590334,499.39117 c 9.198305,-5.10684 18.838866,-8.66579 29.367006,-9.11821 l 12.30588,39.63351 c -9.789,1.03375 -19.578,3.43635 -29.366999,9.11821 z"
             style="opacity:1;fill:#ffffff;fill-opacity:1;stroke:#000000;stroke-width:0.2;stroke-linecap:butt;stroke-miterlimit:4;stroke-dasharray:none;stroke-dashoffset:0;stroke-opacity:1" />
          <path
             sodipodi:nodetypes="csc"
             inkscape:connector-curvature="0"
             id="path4206"
             d="m 126.9923,529.89967 c -1.46249,3.8557 -0.0618,2.84011 1.26195,2.47235 1.53573,-0.42665 1.85081,-0.4027 -0.76173,-2.56074"
             style="fill:#ffffff;fill-rule:evenodd;stroke:#000000;stroke-width:0.69999999;stroke-linecap:round;stroke-linejoin:miter;stroke-miterlimit:4;stroke-dasharray:none;stroke-opacity:1" />
        </g>
        <g
           id="g4310"
           transform="matrix(0.69481434,0,0,0.69481434,56.492213,157.14348)">
          <path
             sodipodi:nodetypes="cccsc"
             inkscape:connector-curvature="0"
             id="path4283"
             d="m 55.633503,493.53045 -0.161743,4.85967 2.887691,-3.67717 c 0.617962,-2.69371 1.884707,-4.05369 0.10698,-4.62933 -1.512045,-0.48962 -1.417443,0.85977 -2.832928,3.44683 z"
             style="fill:none;fill-rule:evenodd;stroke:#000000;stroke-width:0.2;stroke-linecap:butt;stroke-linejoin:miter;stroke-miterlimit:4;stroke-dasharray:none;stroke-opacity:1" />
          <ellipse
             transform="matrix(0.95624809,0.29255697,-0.29255697,0.95624809,0,0)"
             ry="0.92807764"
             rx="1.5099418"
             cy="455.7113"
             cx="199.1143"
             id="path4285-5"
             style="opacity:1;fill:#ffffff;fill-opacity:1;stroke:#000000;stroke-width:0.2;stroke-linecap:round;stroke-miterlimit:4;stroke-dasharray:none;stroke-dashoffset:0;stroke-opacity:1" />
          <path
             sodipodi:nodetypes="cccc"
             inkscape:connector-curvature="0"
             id="rect4280"
             d="m 55.623524,493.58003 12.947064,-33.65819 2.804849,1.07892 -12.947065,33.6582"
             style="opacity:1;fill:#ffffff;fill-opacity:1;stroke:#000000;stroke-width:0.2;stroke-linecap:round;stroke-miterlimit:4;stroke-dasharray:none;stroke-dashoffset:0;stroke-opacity:1" />
          <ellipse
             transform="matrix(0.95624809,0.29255697,-0.29255697,0.95624809,0,0)"
             ry="0.92807764"
             rx="1.5099418"
             cy="419.77271"
             cx="201.63141"
             id="path4285"
             style="opacity:1;fill:#ffffff;fill-opacity:1;stroke:#000000;stroke-width:0.2;stroke-linecap:round;stroke-miterlimit:4;stroke-dasharray:none;stroke-dashoffset:0;stroke-opacity:1" />
          <path
             sodipodi:nodetypes="cccc"
             inkscape:connector-curvature="0"
             id="path4287"
             d="m 55.541028,496.30764 c 0.203738,0.55863 0.547981,0.79286 1.104855,0.55589 l -1.171146,1.50261 z"
             style="fill:#000000;fill-opacity:1;fill-rule:evenodd;stroke:none;stroke-width:1px;stroke-linecap:butt;stroke-linejoin:miter;stroke-opacity:1" />
          <ellipse
             transform="matrix(0.95624809,0.29255697,-0.29255697,0.95624809,0,0)"
             ry="0.26398566"
             rx="0.42949316"
             cy="419.77271"
             cx="201.63141"
             id="path4285-8"
             style="opacity:1;fill:#000000;fill-opacity:1;stroke:#000000;stroke-width:0.0568887;stroke-linecap:round;stroke-miterlimit:4;stroke-dasharray:none;stroke-dashoffset:0;stroke-opacity:1" />
        </g>
        <g
           id="g4526">
          <path
             sodipodi:nodetypes="cssssssssc"
             inkscape:connector-curvature="0"
             id="path4322"
             d="m 95.5,503.66712 c 0,0 1.547103,-1.41207 2.492417,-1.62565 0.36578,-0.0827 0.882583,0.37565 1.257583,0.37565 0.25,0 1.61879,-0.75005 2.51072,-1.03347 0.62787,-0.19952 1.40148,-0.2985 2.05178,-0.40403 0.78144,-0.12681 2,0.375 2.375,0 0.375,-0.375 1.02135,-0.86112 1.625,-1.125 1.05596,-0.4616 2.99242,-0.52903 3.24242,-0.52903 0.25,0 2.19508,-0.97097 2.69508,-1.22097 0.5,-0.25 1.4375,-1.5 1.4375,-1.5"
             style="fill:none;fill-rule:evenodd;stroke:#000000;stroke-width:0.30000001;stroke-linecap:butt;stroke-linejoin:miter;stroke-miterlimit:4;stroke-dasharray:none;stroke-opacity:1" />
          <path
             sodipodi:nodetypes="csssssssssc"
             inkscape:connector-curvature="0"
             id="path4322-9"
             d="m 92.396811,508.63306 c 0,0 1.660067,-0.12866 2.937272,-0.73241 1.793895,-0.84801 2.815467,-2.01848 3.367645,-2.14324 0.365792,-0.0827 1.507582,0.12565 1.882582,0.12565 0.25,0 1.86879,-0.12505 2.76072,-0.40847 0.62787,-0.19952 1.15148,-0.9235 1.80178,-1.02903 0.78144,-0.12681 2,0.375 2.375,0 0.375,-0.375 0.97181,-1.58583 1.625,-1.5 1.24346,0.1634 2.30492,-0.65403 2.55492,-0.65403 0.25,0 2.25758,0.0915 2.75758,-0.15847 0.5,-0.25 2.0625,-2.0625 2.0625,-2.0625"
             style="fill:none;fill-rule:evenodd;stroke:#000000;stroke-width:0.30000001;stroke-linecap:butt;stroke-linejoin:miter;stroke-miterlimit:4;stroke-dasharray:none;stroke-opacity:1" />
          <path
             sodipodi:nodetypes="csssssssssc"
             inkscape:connector-curvature="0"
             id="path4322-9-2"
             d="m 93.98024,512.5864 c 0,0 1.535067,-0.75366 2.937272,-0.73241 1.984005,0.0301 2.190467,-1.58098 2.742648,-1.70574 0.36579,-0.0827 2.42991,0.14082 2.69508,-0.12435 0.625,-0.625 1.74379,-0.5938 2.57322,-0.59597 0.65881,-0.002 1.27648,-0.486 1.92678,-0.59153 0.78144,-0.12681 1.46875,-0.59375 1.84375,-0.96875 0.375,-0.375 1.75306,-0.42958 2.40625,-0.34375 1.24346,0.1634 2.18095,-1.23916 2.86742,-1.09153 0.6749,0.14515 1.43753,-1.04898 1.94508,-0.81472 0.8125,0.375 2.34375,-0.5625 2.34375,-0.5625"
             style="fill:none;fill-rule:evenodd;stroke:#000000;stroke-width:0.30000001;stroke-linecap:butt;stroke-linejoin:miter;stroke-miterlimit:4;stroke-dasharray:none;stroke-opacity:1" />
          <path
             sodipodi:nodetypes="csssssssssc"
             inkscape:connector-curvature="0"
             id="path4322-9-2-1"
             d="m 119.52174,509.16244 c 0,0 -1.53507,0.75366 -2.93728,0.73241 -1.984,-0.0301 -2.19047,1.58098 -2.74265,1.70574 -0.36579,0.0827 -2.42991,-0.14082 -2.69508,0.12435 -0.625,0.625 -1.74379,0.5938 -2.57322,0.59597 -0.65881,0.002 -1.27648,0.486 -1.92678,0.59153 -0.78144,0.12681 -1.46875,0.59375 -1.84375,0.96875 -0.375,0.375 -1.75306,0.42958 -2.40625,0.34375 -1.24346,-0.1634 -2.18095,1.23916 -2.86742,1.09153 -0.6749,-0.14515 -1.437527,1.04898 -1.945077,0.81472 -0.8125,-0.375 -2.34375,0.5625 -2.34375,0.5625"
             style="fill:none;fill-rule:evenodd;stroke:#000000;stroke-width:0.30000001;stroke-linecap:butt;stroke-linejoin:miter;stroke-miterlimit:4;stroke-dasharray:none;stroke-opacity:1" />
          <path
             sodipodi:nodetypes="csssssssssc"
             inkscape:connector-curvature="0"
             id="path4322-9-2-8"
             d="m 120.58424,512.41244 c 0,0 -1.53506,0.75366 -2.93727,0.73241 -1.984,-0.0301 -2.19047,1.58098 -2.74265,1.70574 -0.36579,0.0827 -2.42991,-0.14082 -2.69508,0.12435 -0.625,0.625 -1.74379,0.5938 -2.57322,0.59597 -0.65881,0.002 -1.27648,0.486 -1.92678,0.59153 -0.78144,0.12681 -1.46875,0.59375 -1.84375,0.96875 -0.375,0.375 -1.75306,0.42958 -2.40625,0.34375 -1.24346,-0.1634 -2.18095,1.23916 -2.86742,1.09153 -0.6749,-0.14515 -1.43753,1.04898 -1.94508,0.81472 -0.8125,-0.375 -2.34375,0.5625 -2.34375,0.5625"
             style="fill:none;fill-rule:evenodd;stroke:#000000;stroke-width:0.30000001;stroke-linecap:butt;stroke-linejoin:miter;stroke-miterlimit:4;stroke-dasharray:none;stroke-opacity:1" />
          <path
             sodipodi:nodetypes="csssssssssc"
             inkscape:connector-curvature="0"
             id="path4322-9-0"
             d="m 97.44899,524.36765 c 0,0 1.66007,-0.12866 2.93727,-0.73241 1.7939,-0.84801 2.81547,-2.01848 3.36765,-2.14324 0.36579,-0.0827 1.50758,0.12565 1.88258,0.12565 0.25,0 1.86879,-0.12505 2.76072,-0.40847 0.62787,-0.19952 1.15148,-0.9235 1.80178,-1.02903 0.78144,-0.12681 2,0.375 2.375,0 0.375,-0.375 0.97181,-1.58583 1.625,-1.5 1.24346,0.1634 2.30492,-0.65403 2.55492,-0.65403 0.25,0 2.25758,0.0915 2.75758,-0.15847 0.5,-0.25 2.0625,-2.0625 2.0625,-2.0625"
             style="fill:none;fill-rule:evenodd;stroke:#000000;stroke-width:0.30000001;stroke-linecap:butt;stroke-linejoin:miter;stroke-miterlimit:4;stroke-dasharray:none;stroke-opacity:1" />
          <path
             sodipodi:nodetypes="csssssssssc"
             inkscape:connector-curvature="0"
             id="path4322-9-2-1-7"
             d="m 122.89674,520.22494 c 0,0 -1.53507,0.75366 -2.93728,0.73241 -1.984,-0.0301 -2.19047,1.58098 -2.74265,1.70574 -0.36579,0.0827 -2.42991,-0.14082 -2.69508,0.12435 -0.625,0.625 -1.74379,0.5938 -2.57322,0.59597 -0.65881,0.002 -1.27648,0.486 -1.92678,0.59153 -0.78144,0.12681 -1.46875,0.59375 -1.84375,0.96875 -0.375,0.375 -1.75306,0.42958 -2.40625,0.34375 -1.24346,-0.1634 -2.18095,1.23916 -2.86742,1.09153 -0.6749,-0.14515 -1.43753,1.04898 -1.94508,0.81472 -0.8125,-0.375 -2.34375,0.5625 -2.34375,0.5625"
             style="fill:none;fill-rule:evenodd;stroke:#000000;stroke-width:0.30000001;stroke-linecap:butt;stroke-linejoin:miter;stroke-miterlimit:4;stroke-dasharray:none;stroke-opacity:1" />
          <path
             sodipodi:nodetypes="csssssssssc"
             inkscape:connector-curvature="0"
             id="path4322-9-2-8-8"
             d="m 99.978264,531.12447 c 0,0 1.535056,-0.75366 2.937266,-0.73241 1.984,0.0301 2.19047,-1.58098 2.74265,-1.70574 0.36579,-0.0827 2.42991,0.14082 2.69508,-0.12435 0.625,-0.625 1.74379,-0.5938 2.57322,-0.59597 0.65881,-0.002 1.27648,-0.486 1.92678,-0.59153 0.78144,-0.12681 1.46875,-0.59375 1.84375,-0.96875 0.375,-0.375 1.75306,-0.42958 2.40625,-0.34375 1.24346,0.1634 2.18095,-1.23916 2.86742,-1.09153 0.6749,0.14515 1.43753,-1.04898 1.94508,-0.81472 0.8125,0.375 2.34375,-0.5625 2.34375,-0.5625"
             style="fill:none;fill-rule:evenodd;stroke:#000000;stroke-width:0.30000001;stroke-linecap:butt;stroke-linejoin:miter;stroke-miterlimit:4;stroke-dasharray:none;stroke-opacity:1" />
        </g>
        <g
           id="g4516">
          <path
             sodipodi:nodetypes="csssssssssc"
             inkscape:connector-curvature="0"
             id="path4322-9-6"
             d="m 151.02721,510.47002 c 0,0 -1.66007,0.12866 -2.93728,0.73241 -1.79389,0.84801 -2.81546,2.01848 -3.36764,2.14324 -0.36579,0.0827 -1.50758,-0.12565 -1.88258,-0.12565 -0.25,0 -1.86879,0.12505 -2.76072,0.40847 -0.62787,0.19952 -1.15148,0.9235 -1.80178,1.02903 -0.78144,0.12681 -2,-0.375 -2.375,0 -0.375,0.375 -0.97181,1.58583 -1.625,1.5 -1.24346,-0.1634 -2.30492,0.65403 -2.55492,0.65403 -0.25,0 -2.25758,-0.0915 -2.75758,0.15847 -0.5,0.25 -2.0625,2.0625 -2.0625,2.0625"
             style="fill:none;fill-rule:evenodd;stroke:#000000;stroke-width:0.30000001;stroke-linecap:butt;stroke-linejoin:miter;stroke-miterlimit:4;stroke-dasharray:none;stroke-opacity:1" />
          <path
             sodipodi:nodetypes="csssssssssc"
             inkscape:connector-curvature="0"
             id="path4322-9-2-2"
             d="m 149.44378,506.51668 c 0,0 -1.53507,0.75366 -2.93728,0.73241 -1.984,-0.0301 -2.19046,1.58098 -2.74264,1.70574 -0.36579,0.0827 -2.42991,-0.14082 -2.69508,0.12435 -0.625,0.625 -1.74379,0.5938 -2.57322,0.59597 -0.65881,0.002 -1.27648,0.486 -1.92678,0.59153 -0.78144,0.12681 -1.46875,0.59375 -1.84375,0.96875 -0.375,0.375 -1.75306,0.42958 -2.40625,0.34375 -1.24346,-0.1634 -2.18095,1.23916 -2.86742,1.09153 -0.6749,-0.14515 -1.43753,1.04898 -1.94508,0.81472 -0.8125,-0.375 -2.34375,0.5625 -2.34375,0.5625"
             style="fill:none;fill-rule:evenodd;stroke:#000000;stroke-width:0.30000001;stroke-linecap:butt;stroke-linejoin:miter;stroke-miterlimit:4;stroke-dasharray:none;stroke-opacity:1" />
          <path
             sodipodi:nodetypes="csssssssssc"
             inkscape:connector-curvature="0"
             id="path4322-9-2-1-1"
             d="m 123.90228,509.94064 c 0,0 1.53507,-0.75366 2.93728,-0.73241 1.984,0.0301 2.19047,-1.58098 2.74265,-1.70574 0.36579,-0.0827 2.42991,0.14082 2.69508,-0.12435 0.625,-0.625 1.74379,-0.5938 2.57322,-0.59597 0.65881,-0.002 1.27648,-0.486 1.92678,-0.59153 0.78144,-0.12681 1.46875,-0.59375 1.84375,-0.96875 0.375,-0.375 1.75306,-0.42958 2.40625,-0.34375 1.24346,0.1634 2.18095,-1.23916 2.86742,-1.09153 0.6749,0.14515 1.43752,-1.04898 1.94507,-0.81472 0.8125,0.375 2.34375,-0.5625 2.34375,-0.5625"
             style="fill:none;fill-rule:evenodd;stroke:#000000;stroke-width:0.30000001;stroke-linecap:butt;stroke-linejoin:miter;stroke-miterlimit:4;stroke-dasharray:none;stroke-opacity:1" />
          <path
             sodipodi:nodetypes="csssssssssc"
             inkscape:connector-curvature="0"
             id="path4322-9-2-8-7"
             d="m 122.83978,506.69064 c 0,0 1.53506,-0.75366 2.93727,-0.73241 1.984,0.0301 2.19047,-1.58098 2.74265,-1.70574 0.36579,-0.0827 2.42991,0.14082 2.69508,-0.12435 0.625,-0.625 1.74379,-0.5938 2.57322,-0.59597 0.65881,-0.002 1.27648,-0.486 1.92678,-0.59153 0.78144,-0.12681 1.46875,-0.59375 1.84375,-0.96875 0.375,-0.375 1.75306,-0.42958 2.40625,-0.34375 1.24346,0.1634 2.18095,-1.23916 2.86742,-1.09153 0.6749,0.14515 1.43753,-1.04898 1.94508,-0.81472 0.8125,0.375 2.34375,-0.5625 2.34375,-0.5625"
             style="fill:none;fill-rule:evenodd;stroke:#000000;stroke-width:0.30000001;stroke-linecap:butt;stroke-linejoin:miter;stroke-miterlimit:4;stroke-dasharray:none;stroke-opacity:1" />
          <path
             sodipodi:nodetypes="csssssssssc"
             inkscape:connector-curvature="0"
             id="path4322-9-0-1"
             d="m 145.97503,494.73543 c 0,0 -1.66007,0.12866 -2.93727,0.73241 -1.7939,0.84801 -2.81547,2.01848 -3.36765,2.14324 -0.36579,0.0827 -1.50758,-0.12565 -1.88258,-0.12565 -0.25,0 -1.86879,0.12505 -2.76072,0.40847 -0.62787,0.19952 -1.15148,0.9235 -1.80178,1.02903 -0.78144,0.12681 -2,-0.375 -2.375,0 -0.375,0.375 -0.97181,1.58583 -1.625,1.5 -1.24346,-0.1634 -2.30492,0.65403 -2.55492,0.65403 -0.25,0 -2.25758,-0.0915 -2.75758,0.15847 -0.5,0.25 -2.0625,2.0625 -2.0625,2.0625"
             style="fill:none;fill-rule:evenodd;stroke:#000000;stroke-width:0.30000001;stroke-linecap:butt;stroke-linejoin:miter;stroke-miterlimit:4;stroke-dasharray:none;stroke-opacity:1" />
          <path
             sodipodi:nodetypes="csssssssssc"
             inkscape:connector-curvature="0"
             id="path4322-9-2-1-7-3"
             d="m 120.52728,498.87814 c 0,0 1.53507,-0.75366 2.93728,-0.73241 1.984,0.0301 2.19047,-1.58098 2.74265,-1.70574 0.36579,-0.0827 2.42991,0.14082 2.69508,-0.12435 0.625,-0.625 1.74379,-0.5938 2.57322,-0.59597 0.65881,-0.002 1.27648,-0.486 1.92678,-0.59153 0.78144,-0.12681 1.46875,-0.59375 1.84375,-0.96875 0.375,-0.375 1.75306,-0.42958 2.40625,-0.34375 1.24346,0.1634 2.18095,-1.23916 2.86742,-1.09153 0.6749,0.14515 1.43753,-1.04898 1.94508,-0.81472 0.8125,0.375 2.34375,-0.5625 2.34375,-0.5625"
             style="fill:none;fill-rule:evenodd;stroke:#000000;stroke-width:0.30000001;stroke-linecap:butt;stroke-linejoin:miter;stroke-miterlimit:4;stroke-dasharray:none;stroke-opacity:1" />
          <path
             sodipodi:nodetypes="csssssssssc"
             inkscape:connector-curvature="0"
             id="path4322-9-2-8-8-0"
             d="m 143.44575,487.97861 c 0,0 -1.53505,0.75366 -2.93726,0.73241 -1.984,-0.0301 -2.19047,1.58098 -2.74265,1.70574 -0.36579,0.0827 -2.42991,-0.14082 -2.69508,0.12435 -0.625,0.625 -1.74379,0.5938 -2.57322,0.59597 -0.65881,0.002 -1.27648,0.486 -1.92678,0.59153 -0.78144,0.12681 -1.46875,0.59375 -1.84375,0.96875 -0.375,0.375 -1.75306,0.42958 -2.40625,0.34375 -1.24346,-0.1634 -2.18095,1.23916 -2.86742,1.09153 -0.6749,-0.14515 -1.43753,1.04898 -1.94508,0.81472 -0.8125,-0.375 -2.34375,0.5625 -2.34375,0.5625"
             style="fill:none;fill-rule:evenodd;stroke:#000000;stroke-width:0.30000001;stroke-linecap:butt;stroke-linejoin:miter;stroke-miterlimit:4;stroke-dasharray:none;stroke-opacity:1" />
          <path
             sodipodi:nodetypes="csssssssssc"
             inkscape:connector-curvature="0"
             id="path4322-9-01"
             d="m 128.13649,522.49265 c 0,0 1.66007,-0.12866 2.93727,-0.73241 1.7939,-0.84801 2.81547,-2.01848 3.36765,-2.14324 0.36579,-0.0827 1.50758,0.12565 1.88258,0.12565 0.25,0 1.86879,-0.12505 2.76072,-0.40847 0.62787,-0.19952 1.15148,-0.9235 1.80178,-1.02903 0.78144,-0.12681 2,0.375 2.375,0 0.375,-0.375 0.97181,-1.58583 1.625,-1.5 1.24346,0.1634 2.30492,-0.65403 2.55492,-0.65403 0.25,0 2.25758,0.0915 2.75758,-0.15847 0.5,-0.25 2.0625,-2.0625 2.0625,-2.0625"
             style="fill:none;fill-rule:evenodd;stroke:#000000;stroke-width:0.30000001;stroke-linecap:butt;stroke-linejoin:miter;stroke-miterlimit:4;stroke-dasharray:none;stroke-opacity:1" />
        </g>
      </g>
      <text
         sodipodi:linespacing="125%"
         id="text4136"
         y="498.07648"
         x="197.14285"
         style="font-style:normal;font-weight:normal;font-size:15px;line-height:125%;font-family:sans-serif;letter-spacing:0px;word-spacing:0px;fill:#000000;fill-opacity:1;stroke:none;stroke-width:1px;stroke-linecap:butt;stroke-linejoin:miter;stroke-opacity:1"
         xml:space="preserve"><tspan
           style="font-style:italic;font-variant:normal;font-weight:bold;font-stretch:normal;font-family:'Bookman URW';-inkscape-font-specification:'Bookman URW Italic'"
           y="498.07648"
           x="197.14285"
           id="tspan4138"
           sodipodi:role="line">Ejercicios</tspan></text>
      <path
         sodipodi:nodetypes="cc"
         inkscape:connector-curvature="0"
         id="path4577"
         d="m 212.27207,500.43135 61.98181,0"
         style="fill:none;fill-rule:evenodd;stroke:#000000;stroke-width:1.60000002;stroke-linecap:butt;stroke-linejoin:miter;stroke-miterlimit:4;stroke-dasharray:none;stroke-opacity:1" />
      <path
         sodipodi:nodetypes="cc"
         inkscape:connector-curvature="0"
         id="path4577-5"
         d="m 197.30543,500.43135 7.62298,0"
         style="fill:none;fill-rule:evenodd;stroke:#000000;stroke-width:1.60000002;stroke-linecap:butt;stroke-linejoin:miter;stroke-miterlimit:4;stroke-dasharray:none;stroke-opacity:1" />
    </g>
  </g>
</svg>
